---
title: 城市少女.1988-阳光少年·战斗营主题曲（TP版）【齐飞唱片】【WAV+CUE】
date: 2023-01-16 14:52:17
categories: WAV车载音乐、镜像
tags: 华语中文
---
# 城市少女.1988-阳光少年·战斗营主题曲（TP版）【齐飞唱片】【WAV+CUE】

REM GENRE POP
REM DATE 1988
PERFORMER "城市少女"
TITLE "阳光少年·战斗营主题曲 [台湾磁带版]"
FILE "城市少女.-.[阳光少年·战斗营主题曲](1988)[WAV].wav" WAVE
TRACK 01 AUDIO
TITLE "阳光少年"
INDEX 01 00:00:00
TRACK 02 AUDIO
TITLE "烛光"
INDEX 01 02:27:69
TRACK 03 AUDIO
TITLE "阳光少年（音乐）"
INDEX 01 05:28:60
TRACK 04 AUDIO
TITLE "只有伤心"
INDEX 01 07:57:54
TRACK 05 AUDIO
TITLE "请你倾听"
INDEX 01 12:11:50
城市少女: https://url27.ctfile.com/d/9388027-53850807-948638?p=559675
(访问密码: 559675)
城市少女.1988 - 阳光少年·战斗营主题曲（TP版）【齐飞唱片】【WAV+CUE】.rar: https://url27.ctfile.com/f/9388027-763918061-bc3374?p=559675
(访问密码: 559675)
原文：[链接](https://blog.sina.com.cn/s/blog_1647c7e76010310pi.html)